<?xml version="1.0" encoding="UTF-8" standalone="no"?>
<svg
   xmlns:dc="http://purl.org/dc/elements/1.1/"
   xmlns:cc="http://creativecommons.org/ns#"
   xmlns:rdf="http://www.w3.org/1999/02/22-rdf-syntax-ns#"
   xmlns:svg="http://www.w3.org/2000/svg"
   xmlns="http://www.w3.org/2000/svg"
   xmlns:sodipodi="http://sodipodi.sourceforge.net/DTD/sodipodi-0.dtd"
   xmlns:inkscape="http://www.inkscape.org/namespaces/inkscape"
   inkscape:version="1.0 (4035a4fb49, 2020-05-01)"
   sodipodi:docname="cpu.svg"
   id="svg4"
   version="1.1"
   height="16"
   width="16">
  <metadata
     id="metadata10">
    <rdf:RDF>
      <cc:Work
         rdf:about="">
        <dc:format>image/svg+xml</dc:format>
        <dc:type
           rdf:resource="http://purl.org/dc/dcmitype/StillImage" />
      </cc:Work>
    </rdf:RDF>
  </metadata>
  <defs
     id="defs8" />
  <sodipodi:namedview
     inkscape:current-layer="svg4"
     inkscape:window-maximized="0"
     inkscape:window-y="26"
     inkscape:window-x="0"
     inkscape:cy="5.4886095"
     inkscape:cx="5.6938852"
     inkscape:zoom="20.056181"
     showgrid="false"
     id="namedview6"
     inkscape:window-height="1052"
     inkscape:window-width="958"
     inkscape:pageshadow="2"
     inkscape:pageopacity="0"
     guidetolerance="10"
     gridtolerance="10"
     objecttolerance="10"
     borderopacity="1"
     bordercolor="#666666"
     pagecolor="#ffffff" />
  <path
     id="path2"
     d="M 4.984375 0 A 1.0001 0.99420309 0 0 0 4 1.0078125 L 4 2 L 6 2 L 6 1.0078125 A 1.0001 0.99420309 0 0 0 4.984375 0 z M 7.984375 0 A 1.0001 0.99420309 0 0 0 7 1.0078125 L 7 2 L 9 2 L 9 1.0078125 A 1.0001 0.99420309 0 0 0 7.984375 0 z M 10.984375 0 A 1.0001 0.99420309 0 0 0 10 1.0078125 L 10 2 L 12 2 L 12 1.0078125 A 1.0001 0.99420309 0 0 0 10.984375 0 z M 5 3 C 3.892 3 3 3.892 3 5 L 3 11 C 3 12.108 3.892 13 5 13 L 11 13 C 12.108 13 13 12.108 13 11 L 13 5 C 13 3.892 12.108 3 11 3 L 5 3 z M 1.0078125 4 A 0.99420309 1.0001 0 1 0 1.0078125 6 L 2 6 L 2 4 L 1.0078125 4 z M 14 4 L 14 6 L 14.992188 6 A 0.99420309 1.0001 0 0 0 16 4.984375 A 0.99420309 1.0001 0 0 0 14.992188 4 L 14 4 z M 1.0078125 7 A 0.99420309 1.0001 0 1 0 1.0078125 9 L 2 9 L 2 7 L 1.0078125 7 z M 14 7 L 14 9 L 14.992188 9 A 0.99420309 1.0001 0 0 0 16 7.984375 A 0.99420309 1.0001 0 0 0 14.992188 7 L 14 7 z M 1.0078125 10 A 0.99420309 1.0001 0 1 0 1.0078125 12 L 2 12 L 2 10 L 1.0078125 10 z M 14 10 L 14 12 L 14.992188 12 A 0.99420309 1.0001 0 0 0 16 10.984375 A 0.99420309 1.0001 0 0 0 14.992188 10 L 14 10 z M 4 14 L 4 14.992188 A 1.0001 0.99420309 0 1 0 6 14.992188 L 6 14 L 4 14 z M 7 14 L 7 14.992188 A 1.0001 0.99420309 0 1 0 9 14.992188 L 9 14 L 7 14 z M 10 14 L 10 14.992188 A 1.0001 0.99420309 0 1 0 12 14.992188 L 12 14 L 10 14 z"
     style="fill:#6e6e6e;fill-opacity:1" />
</svg>
