<?xml version="1.0" encoding="UTF-8" standalone="no"?>
<svg
   xmlns:dc="http://purl.org/dc/elements/1.1/"
   xmlns:cc="http://creativecommons.org/ns#"
   xmlns:rdf="http://www.w3.org/1999/02/22-rdf-syntax-ns#"
   xmlns:svg="http://www.w3.org/2000/svg"
   xmlns="http://www.w3.org/2000/svg"
   xmlns:sodipodi="http://sodipodi.sourceforge.net/DTD/sodipodi-0.dtd"
   xmlns:inkscape="http://www.inkscape.org/namespaces/inkscape"
   width="16"
   height="16"
   version="1.1"
   id="svg4"
   sodipodi:docname="mem.svg"
   inkscape:version="1.0 (4035a4fb49, 2020-05-01)">
  <metadata
     id="metadata10">
    <rdf:RDF>
      <cc:Work
         rdf:about="">
        <dc:format>image/svg+xml</dc:format>
        <dc:type
           rdf:resource="http://purl.org/dc/dcmitype/StillImage" />
        <dc:title></dc:title>
      </cc:Work>
    </rdf:RDF>
  </metadata>
  <defs
     id="defs8" />
  <sodipodi:namedview
     inkscape:document-rotation="0"
     pagecolor="#ffffff"
     bordercolor="#666666"
     borderopacity="1"
     objecttolerance="10"
     gridtolerance="10"
     guidetolerance="10"
     inkscape:pageopacity="0"
     inkscape:pageshadow="2"
     inkscape:window-width="958"
     inkscape:window-height="1052"
     id="namedview6"
     showgrid="false"
     inkscape:zoom="20.056181"
     inkscape:cx="5.6938852"
     inkscape:cy="5.4886095"
     inkscape:window-x="0"
     inkscape:window-y="26"
     inkscape:window-maximized="0"
     inkscape:current-layer="svg4" />
  <path
     sodipodi:nodetypes="sssssssssccccccccccccccccccccccccccccccccc"
     style="fill:#6e6e6e;fill-opacity:1"
     d="m 5.3988795,1 c -1.108,0 -2,0.892 -2,2 v 10 c 0,1.108 0.892,2 2,2 H 10.60112 c 1.108,0 2,-0.892 2,-2 V 3 c 0,-1.108 -0.892,-2 -2,-2 z m -4.391067,3 c -1.34434895,-0.019125 -1.34434895,2.0191252 0,2 H 2 V 4 Z M 14,4 v 2 h 0.992188 C 15.552679,6.0077872 16.008755,5.5481759 16,4.984375 15.99143,4.4328123 15.540513,3.9923818 14.992188,4 Z M 1.0078125,7 c -1.34434895,-0.019125 -1.34434895,2.0191252 0,2 H 2 V 7 Z M 14,7 v 2 h 0.992188 C 15.552679,9.0077872 16.008755,8.5481759 16,7.984375 15.99143,7.4328123 15.540513,6.9923818 14.992188,7 Z M 1.0078125,10 c -1.34434895,-0.019125 -1.34434895,2.019125 0,2 H 2 V 10 Z M 14,10 v 2 h 0.992188 C 15.552679,12.007787 16.008755,11.548176 16,10.984375 15.99143,10.432812 15.540513,9.9923818 14.992188,10 Z"
     id="path2" />
</svg>
