<?xml version="1.0" encoding="UTF-8" standalone="no"?>
<svg
   width="16"
   height="16"
   version="1.1"
   id="svg6"
   sodipodi:docname="temp_high.svg"
   inkscape:version="1.1.1 (3bf5ae0d25, 2021-09-20)"
   xmlns:inkscape="http://www.inkscape.org/namespaces/inkscape"
   xmlns:sodipodi="http://sodipodi.sourceforge.net/DTD/sodipodi-0.dtd"
   xmlns="http://www.w3.org/2000/svg"
   xmlns:svg="http://www.w3.org/2000/svg">
  <defs
     id="defs10" />
  <sodipodi:namedview
     id="namedview8"
     pagecolor="#ffffff"
     bordercolor="#666666"
     borderopacity="1.0"
     inkscape:pageshadow="2"
     inkscape:pageopacity="0.0"
     inkscape:pagecheckerboard="0"
     showgrid="false"
     inkscape:zoom="29.5625"
     inkscape:cx="8.2875265"
     inkscape:cy="4.7695561"
     inkscape:current-layer="svg6" />
  <rect
     style="fill:#df4343;fill-opacity:1;stroke-width:5.98294;stroke-linejoin:round;paint-order:fill markers stroke"
     id="rect4189-3"
     width="4.3815742"
     height="6.940886"
     x="5.761322"
     y="2.3577371" />
  <rect
     style="fill:#df4343;fill-opacity:1;stroke-width:5.1435;stroke-linejoin:round;paint-order:fill markers stroke"
     id="rect4452-6"
     width="5.2959986"
     height="8.4386454"
     x="5.3533311"
     y="5.3024879" />
  <path
     style="fill:#dfdfdf;stroke-width:0.885357"
     d="m 8.0000007,0.9087496 c -1.469721,0 -2.652926,1.186011 -2.652926,2.659219 v 3.5525388 c -1.111576,0.8355266 -1.766849,2.1461671 -1.768618,3.5387106 0,2.447368 1.979967,4.432032 4.421544,4.432032 2.4415763,0 4.4215423,-1.984664 4.4215423,-4.432032 -0.0017,-1.3925435 -0.657041,-2.7031839 -1.768617,-3.5387106 V 3.5679686 c 0,-1.473208 -1.1832043,-2.659219 -2.6529253,-2.659219 z m 0,1.772812 c 0.489907,0 0.884308,0.395337 0.884308,0.886407 v 4.5878615 c 1.0585176,0.3752157 1.7668493,1.3778299 1.7686183,2.5033879 0,1.468776 -1.1876273,2.659219 -2.6529263,2.659219 -1.4653,0 -2.652926,-1.190443 -2.652926,-2.659219 8.84e-4,-1.1261785 0.709215,-2.1297677 1.768617,-2.5051608 V 3.5679686 c 0,-0.49107 0.394402,-0.886407 0.884309,-0.886407 z"
     id="path2-7" />
</svg>
