<?xml version="1.0" encoding="UTF-8" standalone="no"?>
<svg
   width="16"
   height="16"
   version="1.1"
   id="svg6"
   sodipodi:docname="temp_mid.svg"
   inkscape:version="1.1.1 (3bf5ae0d25, 2021-09-20)"
   xmlns:inkscape="http://www.inkscape.org/namespaces/inkscape"
   xmlns:sodipodi="http://sodipodi.sourceforge.net/DTD/sodipodi-0.dtd"
   xmlns="http://www.w3.org/2000/svg"
   xmlns:svg="http://www.w3.org/2000/svg">
  <defs
     id="defs10" />
  <sodipodi:namedview
     id="namedview8"
     pagecolor="#ffffff"
     bordercolor="#666666"
     borderopacity="1.0"
     inkscape:pageshadow="2"
     inkscape:pageopacity="0.0"
     inkscape:pagecheckerboard="0"
     showgrid="false"
     inkscape:zoom="22.627417"
     inkscape:cx="8.1759221"
     inkscape:cy="8.7062522"
     inkscape:current-layer="svg6" />
  <rect
     style="opacity:1;fill:#ec9925;fill-opacity:0.376471;stroke-width:5.98294;stroke-linejoin:round;paint-order:fill markers stroke"
     id="rect4189-3"
     width="4.3815742"
     height="6.940886"
     x="5.761322"
     y="2.3577375" />
  <rect
     style="fill:#ec9925;fill-opacity:1;stroke-width:5.1435;stroke-linejoin:round;paint-order:fill markers stroke"
     id="rect4452-6"
     width="5.2959986"
     height="8.4386454"
     x="5.3533311"
     y="5.3024869" />
  <path
     style="fill:#dfdfdf;stroke-width:0.885357"
     d="m 8.0000005,0.90874936 c -1.469721,0 -2.652926,1.18601144 -2.652926,2.65921894 v 3.5525392 c -1.111576,0.8355266 -1.766849,2.1461671 -1.768618,3.5387115 0,2.447368 1.979967,4.432032 4.421544,4.432032 2.4415765,0 4.4215425,-1.984664 4.4215425,-4.432032 -0.0017,-1.3925444 -0.657041,-2.7031848 -1.768617,-3.5387115 V 3.5679683 c 0,-1.4732075 -1.1832045,-2.65921894 -2.6529255,-2.65921894 z m 0,1.77281254 c 0.489907,0 0.884308,0.3953373 0.884308,0.8864064 v 4.5878619 c 1.058518,0.3752157 1.7668495,1.3778299 1.7686185,2.5033888 0,1.468776 -1.1876275,2.659219 -2.6529265,2.659219 -1.4653,0 -2.652926,-1.190443 -2.652926,-2.659219 8.84e-4,-1.1261794 0.709215,-2.1297686 1.768617,-2.5051617 v -4.586089 c 0,-0.4910691 0.394402,-0.8864064 0.884309,-0.8864064 z"
     id="path2-7" />
</svg>
