<?xml version="1.0" encoding="UTF-8" standalone="no"?>
<svg
   width="16"
   height="16"
   version="1.1"
   id="svg6"
   sodipodi:docname="temp_low.svg"
   inkscape:version="1.1.1 (3bf5ae0d25, 2021-09-20)"
   xmlns:inkscape="http://www.inkscape.org/namespaces/inkscape"
   xmlns:sodipodi="http://sodipodi.sourceforge.net/DTD/sodipodi-0.dtd"
   xmlns="http://www.w3.org/2000/svg"
   xmlns:svg="http://www.w3.org/2000/svg">
  <defs
     id="defs10" />
  <sodipodi:namedview
     id="namedview8"
     pagecolor="#ffffff"
     bordercolor="#666666"
     borderopacity="1.0"
     inkscape:pageshadow="2"
     inkscape:pageopacity="0.0"
     inkscape:pagecheckerboard="0"
     showgrid="false"
     inkscape:zoom="45.254834"
     inkscape:cx="9.1260969"
     inkscape:cy="5.1707183"
     inkscape:current-layer="svg6" />
  <rect
     style="opacity:0.490281;fill:#5a98cc;fill-opacity:1;stroke-width:5.98294;stroke-linejoin:round;paint-order:fill markers stroke"
     id="rect4189"
     width="4.3815742"
     height="6.940886"
     x="5.761322"
     y="2.3577375" />
  <rect
     style="opacity:1;fill:#5a98cc;fill-opacity:1;stroke-width:3.83592;stroke-linejoin:round;paint-order:fill markers stroke"
     id="rect4452"
     width="5.3031387"
     height="4.6871448"
     x="5.3518085"
     y="9.0539875" />
  <path
     style="fill:#dfdfdf;stroke-width:0.885357"
     d="m 8.0000002,0.90874945 c -1.4697211,0 -2.6529262,1.18601155 -2.6529262,2.65921905 V 7.1205077 C 4.235498,7.9560343 3.5802253,9.2666748 3.5784566,10.659219 c 0,2.447368 1.9799672,4.432032 4.4215436,4.432032 2.4415768,0 4.4215428,-1.984664 4.4215428,-4.432032 -0.0017,-1.3925442 -0.657041,-2.7031846 -1.768617,-3.5387113 V 3.5679685 c 0,-1.4732075 -1.1832048,-2.65921905 -2.6529258,-2.65921905 z m 0,1.77281265 c 0.489907,0 0.8843086,0.3953373 0.8843086,0.8864064 v 4.5878619 c 1.0585176,0.3752157 1.7668482,1.3778299 1.7686172,2.5033886 0,1.468776 -1.1876264,2.659219 -2.6529258,2.659219 -1.4652996,0 -2.6529262,-1.190443 -2.6529262,-2.659219 8.844e-4,-1.1261792 0.7092157,-2.1297684 1.7686174,-2.5051615 v -4.586089 c 0,-0.4910691 0.3944017,-0.8864064 0.8843088,-0.8864064 z"
     id="path2" />
</svg>
