<?xml version="1.0" encoding="UTF-8" standalone="no"?>
<svg
   width="16"
   height="16"
   version="1.1"
   id="svg6"
   sodipodi:docname="temp.svg"
   inkscape:version="1.1.1 (3bf5ae0d25, 2021-09-20)"
   xmlns:inkscape="http://www.inkscape.org/namespaces/inkscape"
   xmlns:sodipodi="http://sodipodi.sourceforge.net/DTD/sodipodi-0.dtd"
   xmlns="http://www.w3.org/2000/svg"
   xmlns:svg="http://www.w3.org/2000/svg">
  <defs
     id="defs10" />
  <sodipodi:namedview
     id="namedview8"
     pagecolor="#ffffff"
     bordercolor="#666666"
     borderopacity="1.0"
     inkscape:pageshadow="2"
     inkscape:pageopacity="0.0"
     inkscape:pagecheckerboard="0"
     showgrid="false"
     inkscape:zoom="20.903844"
     inkscape:cx="7.8932851"
     inkscape:cy="1.052438"
     inkscape:current-layer="svg6" />
  <rect
     style="fill:#c7c7c7;fill-opacity:1;stroke-width:5.98294;stroke-linejoin:round;paint-order:fill markers stroke"
     id="rect4189-3"
     width="4.3815742"
     height="6.940886"
     x="5.7613225"
     y="2.3577363" />
  <rect
     style="fill:#c7c7c7;fill-opacity:1;stroke-width:5.1435;stroke-linejoin:round;paint-order:fill markers stroke"
     id="rect4452-6"
     width="5.2959986"
     height="8.4386454"
     x="5.3533316"
     y="5.3024879" />
  <path
     style="fill:#dfdfdf;stroke-width:0.885357"
     d="m 8.0000008,0.90874952 c -1.469721,0 -2.652926,1.18601098 -2.652926,2.65921898 v 3.5525386 c -1.111576,0.8355266 -1.766849,2.1461671 -1.768618,3.5387099 0,2.447369 1.979967,4.432033 4.421544,4.432033 2.4415762,0 4.4215422,-1.984664 4.4215422,-4.432033 -0.0017,-1.3925428 -0.657041,-2.7031832 -1.768617,-3.5387099 V 3.5679685 c 0,-1.473208 -1.1832038,-2.65921898 -2.6529252,-2.65921898 z m 0,1.77281198 c 0.4899074,0 0.8843084,0.395337 0.8843084,0.886407 v 4.5878613 c 1.058517,0.3752157 1.7668488,1.3778299 1.7686178,2.5033872 0,1.468777 -1.1876268,2.65922 -2.6529262,2.65922 -1.4653,0 -2.652926,-1.190443 -2.652926,-2.65922 8.84e-4,-1.1261778 0.709215,-2.129767 1.768617,-2.5051601 V 3.5679685 c 0,-0.49107 0.394402,-0.886407 0.884309,-0.886407 z"
     id="path2-7" />
</svg>
